# xmcd
#
# Track frame offsets:
#	182
#	19532
#	35732
#	64870
#
# Disc length: 1096 seconds
#
# Revision: 1
# Processed by: cddbd v1.5PL3 Copyright (c) Steve Scherf et al.
# Submitted via: EasyCDDAExtractor 6.5.0.1
#
DISCID=2d044604
DTITLE=Oleta Adams - Circle Of One
DYEAR=1900
DGENRE=
TTITLE0=Circle Of One(Radio Circle Mix)
TTITLE1=Circle Of One(Hot Mix 7 Inch)
TTITLE2=Circle Of One(Full Circle 12 Inch)
TTITLE3=Circle Of One(LP Version)
EXTD=
EXTT0=
EXTT1=
EXTT2=
EXTT3=
PLAYORDER=
